<svg width="180" height="180" viewBox="0 0 180 180" fill="none" xmlns="http://www.w3.org/2000/svg">
<path fill-rule="evenodd" clip-rule="evenodd" d="M163.636 118.636V139.091H180V49.0909C180 21.9788 158.021 0 130.909 0C103.797 0 81.8182 21.9788 81.8182 49.0909V61.3636C81.8182 79.4384 67.1657 94.0909 49.0909 94.0909C31.0161 94.0909 16.3636 79.4384 16.3636 61.3636V40.9091H0V61.3636C0 88.4758 21.9788 110.455 49.0909 110.455C61.664 110.455 73.1331 105.728 81.8182 97.9545V130.909C81.8182 148.984 67.1657 163.636 49.0909 163.636C31.0161 163.636 16.3636 148.984 16.3636 130.909H0C0 158.021 21.9788 180 49.0909 180C76.2031 180 98.1818 158.021 98.1818 130.909V118.636C98.1818 100.562 112.834 85.9091 130.909 85.9091C148.984 85.9091 163.636 100.562 163.636 118.636ZM130.909 16.3636C112.834 16.3636 98.1818 31.0161 98.1818 49.0909V82.0455C106.867 74.2722 118.336 69.5455 130.909 69.5455C143.482 69.5455 154.951 74.2722 163.636 82.0455V49.0909C163.636 31.0161 148.984 16.3636 130.909 16.3636Z" fill="white"/>
</svg>
