<svg width="400" height="110" viewBox="0 0 400 110" fill="none" xmlns="http://www.w3.org/2000/svg">
<g style="mix-blend-mode:overlay">
<path d="M125 55C125 43.9543 133.954 35 145 35C156.046 35 165 43.9543 165 55V85H175V55C175 38.4315 161.569 25 145 25C137.316 25 130.308 27.8885 125 32.6389V25H115V85H125V55Z" fill="white"/>
<path d="M210 35C198.954 35 190 43.9543 190 55V85H180V25H190V32.6389C195.308 27.8885 202.316 25 210 25C226.569 25 240 38.4315 240 55V85H230V55C230 43.9543 221.046 35 210 35Z" fill="white"/>
<path d="M370 55C370 66.0457 378.954 75 390 75H400V85H390C379.565 85 370.375 79.6725 365 71.589C359.625 79.6725 350.435 85 340 85H330V75H340C351.046 75 360 66.0457 360 55C360 43.9543 351.046 35 340 35H330V55C330 71.5685 316.569 85 300 85C283.431 85 270 71.5685 270 55V25H280V55C280 66.0457 288.954 75 300 75C311.046 75 320 66.0457 320 55V25H340C350.435 25 359.625 30.3275 365 38.411C370.375 30.3275 379.565 25 390 25H400V35H390C378.954 35 370 43.9543 370 55Z" fill="white"/>
<path d="M255 60C257.761 60 260 57.7614 260 55C260 52.2386 257.761 50 255 50C252.239 50 250 52.2386 250 55C250 57.7614 252.239 60 255 60Z" fill="white"/>
<path fill-rule="evenodd" clip-rule="evenodd" d="M100 85V72.5C100 61.4543 91.0457 52.5 80 52.5C68.9543 52.5 60 61.4543 60 72.5V79.9999C60 96.5685 46.5685 110 30 110C13.4315 110 0 96.5685 0 80H10C10 91.0457 18.9543 100 30 100C41.0457 100 50 91.0456 50 79.9999V59.8611C44.6924 64.6115 37.6835 67.5 30 67.5C13.4315 67.5 0 54.0685 0 37.5V25H10V37.5C10 48.5457 18.9543 57.5 30 57.5C41.0457 57.5 50 48.5457 50 37.5V30C50 13.4315 63.4315 0 80 0C96.5685 0 110 13.4315 110 30V85H100ZM60 30C60 18.9543 68.9543 10 80 10C91.0457 10 100 18.9543 100 30V50.1389C94.6924 45.3885 87.6835 42.5 80 42.5C72.3165 42.5 65.3076 45.3885 60 50.1389V30Z" fill="white"/>
</g>
</svg>
