<svg width="68" height="68" viewBox="0 0 68 68" fill="none" xmlns="http://www.w3.org/2000/svg">
<rect width="68" height="68" rx="34" fill="#C6694D"/>
<path d="M33.4719 31.664C34.7092 31.664 35.6052 31.4293 36.1599 30.96C36.7359 30.4907 37.0239 29.9147 37.0239 29.232V29.008C37.0239 28.1973 36.7466 27.5573 36.1919 27.088C35.6586 26.5973 34.8906 26.352 33.8879 26.352C32.9706 26.352 32.1066 26.5867 31.2959 27.056C30.5066 27.504 29.8346 28.1547 29.2799 29.008L26.2399 26.192C26.6666 25.6373 27.1359 25.136 27.6479 24.688C28.1599 24.2187 28.7252 23.824 29.3439 23.504C29.9626 23.1627 30.6559 22.9067 31.4239 22.736C32.2132 22.544 33.0986 22.448 34.0799 22.448C35.2959 22.448 36.3946 22.5867 37.3759 22.864C38.3572 23.1413 39.1892 23.5467 39.8719 24.08C40.5759 24.592 41.1199 25.2107 41.5039 25.936C41.8879 26.6613 42.0799 27.472 42.0799 28.368C42.0799 29.072 41.9626 29.712 41.7279 30.288C41.4932 30.864 41.1732 31.3653 40.7679 31.792C40.3839 32.2187 39.9252 32.5707 39.3919 32.848C38.8799 33.104 38.3252 33.2853 37.7279 33.392V33.584C39.0932 33.8187 40.2239 34.3947 41.1199 35.312C42.0372 36.208 42.4959 37.424 42.4959 38.96C42.4959 39.9627 42.2826 40.8693 41.8559 41.68C41.4506 42.4907 40.8639 43.184 40.0959 43.76C39.3492 44.336 38.4319 44.784 37.3439 45.104C36.2772 45.4027 35.0826 45.552 33.7599 45.552C32.6292 45.552 31.6266 45.4347 30.7519 45.2C29.8986 44.9653 29.1412 44.656 28.4799 44.272C27.8186 43.8667 27.2426 43.408 26.7519 42.896C26.2826 42.3627 25.8666 41.8187 25.5039 41.264L29.0559 38.512C29.5466 39.4293 30.1546 40.1867 30.8799 40.784C31.6266 41.36 32.6186 41.648 33.8559 41.648C35.0079 41.648 35.8932 41.3813 36.5119 40.848C37.1306 40.3147 37.4399 39.5787 37.4399 38.64V38.416C37.4399 37.4987 37.0879 36.816 36.3839 36.368C35.6799 35.8987 34.6986 35.664 33.4399 35.664H31.3599V31.664H33.4719Z" fill="#212622"/>
</svg>
