<svg width="68" height="68" viewBox="0 0 68 68" fill="none" xmlns="http://www.w3.org/2000/svg">
<rect width="68" height="68" rx="34" fill="#C6694D"/>
<path d="M42.272 45.36H26.208V40.976L33.248 35.12C34.464 34.0747 35.3387 33.168 35.872 32.4C36.4054 31.632 36.672 30.8213 36.672 29.968V29.648C36.672 28.7093 36.3947 28.0053 35.84 27.536C35.2854 27.0453 34.5387 26.8 33.6 26.8C32.5334 26.8 31.712 27.1093 31.136 27.728C30.56 28.3467 30.1547 29.0827 29.92 29.936L25.728 28.336C25.984 27.568 26.336 26.8427 26.784 26.16C27.232 25.456 27.7974 24.848 28.48 24.336C29.184 23.824 29.9947 23.4187 30.912 23.12C31.8294 22.8 32.8854 22.64 34.08 22.64C35.296 22.64 36.384 22.8107 37.344 23.152C38.304 23.4933 39.1147 23.9627 39.776 24.56C40.4374 25.1573 40.9387 25.872 41.28 26.704C41.6214 27.5147 41.792 28.4 41.792 29.36C41.792 30.2987 41.632 31.1627 41.312 31.952C41.0134 32.72 40.5867 33.4453 40.032 34.128C39.4987 34.8107 38.8587 35.472 38.112 36.112C37.3867 36.752 36.608 37.392 35.776 38.032L31.52 41.328H42.272V45.36Z" fill="#212622"/>
</svg>
