<svg width="68" height="68" viewBox="0 0 68 68" fill="none" xmlns="http://www.w3.org/2000/svg">
<path fill-rule="evenodd" clip-rule="evenodd" d="M34 68C52.7777 68 68 52.7777 68 34C68 15.2223 52.7777 0 34 0C15.2223 0 0 15.2223 0 34C0 52.7777 15.2223 68 34 68ZM36.656 30.512C36.1013 30.9813 35.2053 31.216 33.968 31.216H31.856V35.216H33.936C35.1947 35.216 36.176 35.4507 36.88 35.92C37.584 36.368 37.936 37.0507 37.936 37.968V38.192C37.936 39.1307 37.6267 39.8667 37.008 40.4C36.3893 40.9333 35.504 41.2 34.352 41.2C33.1147 41.2 32.1227 40.912 31.376 40.336C30.6507 39.7387 30.0427 38.9813 29.552 38.064L26 40.816C26.3627 41.3707 26.7787 41.9147 27.248 42.448C27.7387 42.96 28.3147 43.4187 28.976 43.824C29.6373 44.208 30.3947 44.5173 31.248 44.752C32.1227 44.9867 33.1253 45.104 34.256 45.104C35.5787 45.104 36.7733 44.9547 37.84 44.656C38.928 44.336 39.8453 43.888 40.592 43.312C41.36 42.736 41.9467 42.0427 42.352 41.232C42.7787 40.4213 42.992 39.5147 42.992 38.512C42.992 36.976 42.5333 35.76 41.616 34.864C40.72 33.9467 39.5893 33.3707 38.224 33.136V32.944C38.8213 32.8373 39.376 32.656 39.888 32.4C40.4213 32.1227 40.88 31.7707 41.264 31.344C41.6693 30.9173 41.9893 30.416 42.224 29.84C42.4587 29.264 42.576 28.624 42.576 27.92C42.576 27.024 42.384 26.2133 42 25.488C41.616 24.7627 41.072 24.144 40.368 23.632C39.6853 23.0987 38.8533 22.6933 37.872 22.416C36.8907 22.1387 35.792 22 34.576 22C33.5947 22 32.7093 22.096 31.92 22.288C31.152 22.4587 30.4587 22.7147 29.84 23.056C29.2213 23.376 28.656 23.7707 28.144 24.24C27.632 24.688 27.1627 25.1893 26.736 25.744L29.776 28.56C30.3307 27.7067 31.0027 27.056 31.792 26.608C32.6027 26.1387 33.4667 25.904 34.384 25.904C35.3867 25.904 36.1547 26.1493 36.688 26.64C37.2427 27.1093 37.52 27.7493 37.52 28.56V28.784C37.52 29.4667 37.232 30.0427 36.656 30.512Z" fill="#C6694D"/>
</svg>
