<svg width="68" height="68" viewBox="0 0 68 68" fill="none" xmlns="http://www.w3.org/2000/svg">
<path fill-rule="evenodd" clip-rule="evenodd" d="M34 68C52.7773 68 68 52.7773 68 34C68 15.2227 52.7773 0 34 0C15.2227 0 0 15.2227 0 34C0 52.7773 15.2227 68 34 68ZM26.4805 45.7197H42.5449V41.6885H31.793L36.0488 38.3916C36.8809 37.752 37.6582 37.1123 38.3848 36.4717C39.1309 35.832 39.7715 35.1709 40.3047 34.4883C40.5996 34.125 40.8594 33.75 41.0801 33.3623C41.2754 33.0215 41.4434 32.6709 41.584 32.3115C41.9043 31.5225 42.0645 30.6582 42.0645 29.7197C42.0645 28.7598 41.8926 27.875 41.5527 27.0645C41.2109 26.2324 40.709 25.5176 40.0488 24.9199C39.3867 24.3223 38.5762 23.8535 37.6152 23.5117C36.6562 23.1709 35.5684 23 34.3516 23C33.1582 23 32.1016 23.1602 31.1836 23.4805C30.7539 23.6201 30.3477 23.7832 29.9648 23.9697C29.5293 24.1816 29.125 24.4238 28.752 24.6963C28.0684 25.208 27.5039 25.8164 27.0566 26.5195C26.6074 27.2031 26.2559 27.9277 26 28.6963L30.1914 30.2959C30.4258 29.4424 30.832 28.707 31.4082 28.0879C31.7891 27.6797 32.2754 27.4062 32.8672 27.2676C33.1738 27.1963 33.5078 27.1602 33.8711 27.1602C34.8105 27.1602 35.5566 27.4053 36.1113 27.8965C36.666 28.3652 36.9434 29.0693 36.9434 30.0078V30.3281C36.9434 31.1816 36.6777 31.9922 36.1445 32.7598C35.6113 33.5283 34.7363 34.4346 33.5195 35.4805L26.4805 41.3359V45.7197Z" fill="#C6694D"/>
</svg>
