<svg width="68" height="68" viewBox="0 0 68 68" fill="none" xmlns="http://www.w3.org/2000/svg">
<path fill-rule="evenodd" clip-rule="evenodd" d="M34 68C52.7773 68 68 52.7773 68 34C68 15.2227 52.7773 0 34 0C15.2227 0 0 15.2227 0 34C0 52.7773 15.2227 68 34 68ZM31.1191 27.1924H41.4551V23H27.5996L26.7676 35.6396L30.7031 36.1836C31.002 35.8428 31.4395 35.501 32.0156 35.1602C32.6133 34.7969 33.3594 34.6162 34.2559 34.6162C35.3438 34.6162 36.1973 34.915 36.8164 35.5117C37.4355 36.1094 37.7441 36.9307 37.7441 37.9756V38.2324C37.7441 39.3203 37.4355 40.1943 36.8164 40.8564C36.2188 41.4961 35.3223 41.8164 34.1289 41.8164C33.5312 41.8164 32.998 41.7412 32.5273 41.5918C32.0801 41.4209 31.6641 41.1973 31.2793 40.9199C31.0137 40.6992 30.7637 40.4561 30.5293 40.1895C30.4453 40.0947 30.3652 39.9971 30.2871 39.8965C30.0098 39.5117 29.7441 39.1064 29.4883 38.6797L26 41.4316C26.2148 41.7783 26.4531 42.1221 26.7168 42.4609C26.875 42.6631 27.041 42.8643 27.2168 43.0645C27.707 43.5762 28.2715 44.0342 28.9121 44.4404C29.5742 44.8242 30.3301 45.1338 31.1836 45.3682C32.0371 45.6025 33.0078 45.7197 34.0957 45.7197C35.4824 45.7197 36.7207 45.5283 37.8086 45.1436C38.8965 44.7383 39.8027 44.1836 40.5273 43.4805C41.2754 42.7764 41.8398 41.9443 42.2246 40.9844C42.6074 40.0244 42.8008 38.9785 42.8008 37.8477C42.8008 36.7383 42.6191 35.7471 42.2559 34.8721C41.8926 33.9756 41.3926 33.2295 40.752 32.6318C40.1328 32.0137 39.4082 31.5439 38.5762 31.2236C37.7656 30.9043 36.9004 30.7441 35.9844 30.7441C35.3008 30.7441 34.6934 30.8291 34.1602 31C33.8945 31.085 33.6465 31.1885 33.4121 31.3105C33.1758 31.4336 32.9551 31.5752 32.752 31.7363C32.3457 32.0342 31.9941 32.4082 31.6953 32.8564C31.5352 33.0859 31.3828 33.3281 31.2402 33.582C31.1191 33.7998 31.0039 34.0273 30.8965 34.2637H30.6074L31.1191 27.1924Z" fill="#C6694D"/>
</svg>
