<svg width="68" height="68" viewBox="0 0 68 68" fill="none" xmlns="http://www.w3.org/2000/svg">
<rect width="68" height="68" rx="34" fill="#C6694D"/>
<path d="M41.0561 26.832H30.7201L30.2081 33.904H30.4961C30.7308 33.392 30.9974 32.9227 31.2961 32.496C31.5948 32.048 31.9468 31.6747 32.3521 31.376C32.7574 31.056 33.2268 30.8107 33.7601 30.64C34.2934 30.4693 34.9014 30.384 35.5841 30.384C36.5014 30.384 37.3654 30.544 38.1761 30.864C39.0081 31.184 39.7334 31.6533 40.3521 32.272C40.9921 32.8693 41.4934 33.616 41.8561 34.512C42.2188 35.3867 42.4001 36.3787 42.4001 37.488C42.4001 38.6187 42.2081 39.664 41.8241 40.624C41.4401 41.584 40.8748 42.416 40.1281 43.12C39.4028 43.824 38.4961 44.3787 37.4081 44.784C36.3201 45.168 35.0828 45.36 33.6961 45.36C32.6081 45.36 31.6374 45.2427 30.7841 45.008C29.9308 44.7733 29.1734 44.464 28.5121 44.08C27.8721 43.6747 27.3068 43.216 26.8161 42.704C26.3468 42.1707 25.9414 41.6267 25.6001 41.072L29.0881 38.32C29.3441 38.7467 29.6108 39.152 29.8881 39.536C30.1868 39.92 30.5174 40.2613 30.8801 40.56C31.2641 40.8373 31.6801 41.0613 32.1281 41.232C32.5974 41.3813 33.1308 41.456 33.7281 41.456C34.9228 41.456 35.8188 41.136 36.4161 40.496C37.0348 39.8347 37.3441 38.96 37.3441 37.872V37.616C37.3441 36.5707 37.0348 35.7493 36.4161 35.152C35.7974 34.5547 34.9441 34.256 33.8561 34.256C32.9601 34.256 32.2134 34.4373 31.6161 34.8C31.0401 35.1413 30.6028 35.4827 30.3041 35.824L26.3681 35.28L27.2001 22.64H41.0561V26.832Z" fill="#212622"/>
</svg>
