<svg width="60" height="61" viewBox="0 0 60 61" fill="none" xmlns="http://www.w3.org/2000/svg">
<path d="M30 36.5059C29.2113 36.5059 28.4303 36.3506 27.7016 36.0488C26.973 35.7469 26.3109 35.3046 25.7532 34.7468C25.1954 34.1891 24.7531 33.527 24.4512 32.7983C24.1494 32.0696 23.994 31.2886 23.994 30.4999C23.994 29.7112 24.1494 28.9302 24.4512 28.2015C24.7531 27.4728 25.1954 26.8108 25.7532 26.2531C26.3109 25.6954 26.973 25.2529 27.7016 24.9511C28.4303 24.6493 29.2113 24.494 30 24.494C31.5929 24.494 33.1206 25.1267 34.2469 26.2531C35.3733 27.3794 36.006 28.907 36.006 30.4999C36.006 32.0928 35.3733 33.6205 34.2469 34.7468C33.1206 35.8732 31.5929 36.5059 30 36.5059Z" fill="#C6694D"/>
<path fill-rule="evenodd" clip-rule="evenodd" d="M30 15.7436C34.806 15.7436 35.376 15.7616 37.2744 15.848C39.0288 15.9284 39.9816 16.22 40.6164 16.4684C41.4564 16.7936 42.0564 17.1848 42.6864 17.8136C43.3164 18.4436 43.7064 19.0436 44.0316 19.8836C44.2788 20.5184 44.5716 21.4712 44.652 23.2256C44.7384 25.124 44.7564 25.694 44.7564 30.5C44.7564 35.306 44.7384 35.876 44.652 37.7744C44.5716 39.5288 44.28 40.4816 44.0316 41.1164C43.7435 41.8983 43.2838 42.6056 42.6864 43.1864C42.1057 43.784 41.3983 44.2437 40.6164 44.5316C39.9816 44.7788 39.0288 45.0716 37.2744 45.152C35.376 45.2384 34.8072 45.2564 30 45.2564C25.1928 45.2564 24.624 45.2384 22.7256 45.152C20.9712 45.0716 20.0184 44.78 19.3836 44.5316C18.6017 44.2435 17.8944 43.7839 17.3136 43.1864C16.7162 42.6055 16.2566 41.8982 15.9684 41.1164C15.7212 40.4816 15.4284 39.5288 15.348 37.7744C15.2616 35.876 15.2436 35.306 15.2436 30.5C15.2436 25.694 15.2616 25.124 15.348 23.2256C15.4284 21.4712 15.72 20.5184 15.9684 19.8836C16.2936 19.0436 16.6848 18.4436 17.3136 17.8136C17.8943 17.2161 18.6017 16.7563 19.3836 16.4684C20.0184 16.2212 20.9712 15.9284 22.7256 15.848C24.624 15.7616 25.194 15.7436 30 15.7436ZM30 21.2479C27.5463 21.2479 25.193 22.2227 23.4579 23.9578C21.7228 25.6929 20.748 28.0461 20.748 30.4999C20.748 32.9537 21.7228 35.307 23.4579 37.0421C25.193 38.7772 27.5463 39.752 30 39.752C32.4538 39.752 34.8071 38.7772 36.5422 37.0421C38.2773 35.307 39.252 32.9537 39.252 30.4999C39.252 28.0461 38.2773 25.6929 36.5422 23.9578C34.8071 22.2227 32.4538 21.2479 30 21.2479ZM41.9436 21.08C41.9436 21.66 41.7132 22.2162 41.3031 22.6264C40.8929 23.0365 40.3367 23.267 39.7567 23.267C39.1766 23.267 38.6203 23.0365 38.2102 22.6264C37.8001 22.2162 37.5696 21.66 37.5696 21.08C37.5696 20.4999 37.8001 19.9437 38.2102 19.5335C38.6203 19.1234 39.1766 18.8929 39.7567 18.8929C40.3367 18.8929 40.8929 19.1234 41.3031 19.5335C41.7132 19.9437 41.9436 20.4999 41.9436 21.08Z" fill="#C6694D"/>
<path fill-rule="evenodd" clip-rule="evenodd" d="M30 60.5C46.5685 60.5 60 47.0685 60 30.5C60 13.9315 46.5685 0.5 30 0.5C13.4315 0.5 0 13.9315 0 30.5C0 47.0685 13.4315 60.5 30 60.5ZM30 12.5C25.1112 12.5 24.4992 12.5204 22.5792 12.608C20.6628 12.6956 19.3536 13.0004 18.2088 13.4456C17.0088 13.8968 15.9204 14.6048 15.0204 15.5216C14.1051 16.4205 13.3966 17.5082 12.9444 18.7088C12.5016 19.8536 12.1956 21.164 12.108 23.0804C12.0216 24.9992 12 25.61 12 30.5C12 35.39 12.0204 36.0008 12.108 37.9208C12.1956 39.8372 12.5004 41.1464 12.9456 42.2912C13.3968 43.4912 14.1048 44.5796 15.0216 45.4796C15.9206 46.3949 17.0082 47.1033 18.2088 47.5556C19.3536 47.9996 20.6628 48.3044 22.5792 48.392C24.4992 48.4796 25.1112 48.5 30 48.5C34.8888 48.5 35.5008 48.4796 37.4208 48.392C39.3372 48.3044 40.6464 47.9996 41.7912 47.5544C42.9912 47.1032 44.0796 46.3952 44.9796 45.4784C45.8949 44.5795 46.6034 43.4918 47.0556 42.2912C47.4996 41.1464 47.8044 39.8372 47.892 37.9208C47.9796 36.0008 48 35.3888 48 30.5C48 25.6112 47.9796 24.9992 47.892 23.0792C47.8044 21.1628 47.4996 19.8536 47.0544 18.7088C46.6025 17.5077 45.894 16.4196 44.9784 15.5204C44.0794 14.605 42.9918 13.8966 41.7912 13.4444C40.6464 13.0016 39.336 12.6956 37.4196 12.608C35.5008 12.5216 34.89 12.5 30 12.5Z" fill="#C6694D"/>
</svg>
