<svg width="60" height="61" viewBox="0 0 60 61" fill="none" xmlns="http://www.w3.org/2000/svg">
<path d="M17.2941 43.2059V26.2647H22.5882V43.2059H17.2941Z" fill="#C6694D"/>
<path d="M22.8407 19.2726C22.9914 19.6436 23.0675 20.0407 23.0647 20.4412V20.5365C23.0551 20.937 22.9667 21.3316 22.8045 21.6979C22.6423 22.0642 22.4095 22.395 22.1194 22.6713C21.8293 22.9476 21.4877 23.1641 21.1139 23.3082C20.7402 23.4525 20.3417 23.5216 19.9412 23.5118C19.1268 23.5118 18.3458 23.1882 17.7699 22.6124C17.1941 22.0366 16.8706 21.2556 16.8706 20.4412C16.8706 19.6268 17.1941 18.8458 17.7699 18.27C18.3458 17.6941 19.1268 17.3706 19.9412 17.3706H20.0365C20.4369 17.3734 20.8329 17.455 21.2018 17.6108C21.5707 17.7666 21.9053 17.9936 22.1866 18.2787C22.4677 18.5638 22.69 18.9016 22.8407 19.2726Z" fill="#C6694D"/>
<path d="M36.2471 25.8412C39.4659 25.8412 42.7059 27.8212 42.7059 32.9141L42.6635 43.2059H37.3694V34.1318C37.3694 31.4635 36.12 30.4047 34.4365 30.4047H34.2353C33.3133 30.4908 32.4625 30.9372 31.8678 31.647C31.273 32.3567 30.9823 33.2725 31.0588 34.1953V43.2059H25.7647V26.2647H30.7412V28.5729H30.8894C31.4657 27.689 32.2637 26.9716 33.2038 26.4922C34.1438 26.0129 35.1931 25.7884 36.2471 25.8412Z" fill="#C6694D"/>
<path fill-rule="evenodd" clip-rule="evenodd" d="M30 60.5C46.5685 60.5 60 47.0685 60 30.5C60 13.9315 46.5685 0.5 30 0.5C13.4315 0.5 0 13.9315 0 30.5C0 47.0685 13.4315 60.5 30 60.5ZM47.2247 47.7247C47.7211 47.2283 48 46.555 48 45.853V15.147C48 14.445 47.7211 13.7717 47.2247 13.2753C46.7283 12.7789 46.055 12.5 45.3529 12.5H14.6471C13.945 12.5 13.2717 12.7789 12.7753 13.2753C12.2789 13.7717 12 14.445 12 15.147V45.853C12 46.555 12.2789 47.2283 12.7753 47.7247C13.2717 48.2211 13.945 48.5 14.6471 48.5H45.3529C46.055 48.5 46.7283 48.2211 47.2247 47.7247Z" fill="#C6694D"/>
</svg>
