<svg width="42" height="35" viewBox="0 0 42 35" fill="none" xmlns="http://www.w3.org/2000/svg">
<path d="M30.4004 23.0001L39.0004 15.6001L39.6504 15.6501C40.0837 15.6834 40.4254 15.8518 40.6754 16.1551C40.9254 16.4581 41.0504 16.7866 41.0504 17.1406C41.0504 17.3426 41.0004 17.5448 40.9004 17.7471C40.8004 17.9491 40.6671 18.1334 40.5004 18.3001L33.8004 24.0501L35.8504 32.9001C35.8837 32.9514 35.9004 33.0091 35.9004 33.0731V33.2461C35.9004 33.6821 35.7492 34.0334 35.4469 34.3001C35.1449 34.5668 34.7924 34.7001 34.3894 34.7001C34.2634 34.7001 34.1317 34.6834 33.9944 34.6501C33.8567 34.6168 33.7254 34.5668 33.6004 34.5001L32.9504 34.1001L30.4004 23.0001ZM25.7504 8.5501L22.9004 1.8501L23.1504 1.3001C23.2721 1.0121 23.4609 0.790097 23.7169 0.634097C23.9726 0.478097 24.2379 0.400098 24.5129 0.400098C24.7879 0.400098 25.0567 0.475098 25.3194 0.625098C25.5817 0.775098 25.7754 1.0001 25.9004 1.3001L29.1004 8.8501L25.7504 8.5501ZM6.45039 32.5501L8.90039 21.9501L0.700391 14.8001C0.533724 14.6334 0.400391 14.4556 0.300391 14.2666C0.200391 14.0779 0.150391 13.8891 0.150391 13.7001C0.150391 13.3441 0.275391 13.0134 0.525391 12.7081C0.775391 12.4028 1.11706 12.2334 1.55039 12.2001L12.4044 11.2456L16.6004 1.2501C16.7254 0.950098 16.9192 0.725098 17.1819 0.575098C17.4442 0.425098 17.7129 0.350098 17.9879 0.350098C18.2629 0.350098 18.5351 0.425098 18.8044 0.575098C19.0734 0.725098 19.2721 0.950098 19.4004 1.2501L23.5964 11.2456L34.4504 12.2001C34.8837 12.2334 35.2254 12.4023 35.4754 12.7066C35.7254 13.0109 35.8504 13.3406 35.8504 13.6956C35.8504 13.8986 35.8004 14.0918 35.7004 14.2751C35.6004 14.4584 35.4671 14.6334 35.3004 14.8001L27.1004 21.9501L29.5504 32.5501C29.5837 32.6258 29.6004 32.7391 29.6004 32.8901C29.6004 33.3178 29.4506 33.6764 29.1509 33.9661C28.8512 34.2554 28.5046 34.4001 28.1109 34.4001C28.0372 34.4001 27.7671 34.3168 27.3004 34.1501L18.0004 28.5501L8.70039 34.1501C8.56706 34.2168 8.43172 34.2751 8.29439 34.3251C8.15672 34.3751 8.02539 34.4001 7.90039 34.4001C7.45039 34.4001 7.06289 34.2168 6.73789 33.8501C6.41289 33.4834 6.31706 33.0501 6.45039 32.5501Z" fill="#C6694D"/>
</svg>
