<svg width="60" height="61" viewBox="0 0 60 61" fill="none" xmlns="http://www.w3.org/2000/svg">
<path d="M25.9949 36.5257L36.3671 30.518L25.9949 24.5103V36.5257Z" fill="#C6694D"/>
<path fill-rule="evenodd" clip-rule="evenodd" d="M30 60.5C46.5685 60.5 60 47.0685 60 30.5C60 13.9315 46.5685 0.5 30 0.5C13.4315 0.5 0 13.9315 0 30.5C0 47.0685 13.4315 60.5 30 60.5ZM49.1271 20.8903C48.665 19.1701 47.3042 17.8094 45.5841 17.3472C42.4775 16.5 29.9743 16.5 29.9743 16.5C29.9743 16.5 17.4711 16.5257 14.3646 17.3729C12.6444 17.835 11.2837 19.1957 10.8216 20.9159C10 24.0225 10 30.5179 10 30.5179C10 30.5179 10 37.0135 10.8472 40.1457C11.3094 41.8658 12.6701 43.2266 14.3902 43.6887C17.4968 44.5359 30 44.5359 30 44.5359C30 44.5359 42.5032 44.5359 45.6098 43.6887C47.3299 43.2266 48.6906 41.8658 49.1528 40.1457C50 37.0391 50 30.5179 50 30.5179C50 30.5179 49.9743 24.0225 49.1271 20.8903Z" fill="#C6694D"/>
</svg>
